# File exported by Houdini 19.0.498 (www.sidefx.com)
# 8 points
# 24 vertices
# 6 primitives
# Bounds: [-2.29729462, 5.37743759, -2.29195476] to [2.29725218, 5.66275644, 2.30259204]
g 
v -2.29729462 5.37743759 2.30259204
v -2.29729462 5.66275644 2.30259204
v -2.29729462 5.37743759 -2.29195476
v -2.29729462 5.66275644 -2.29195476
v 2.29725218 5.37743759 2.30259204
v 2.29725218 5.66275644 2.30259204
v 2.29725218 5.37743759 -2.29195476
v 2.29725218 5.66275644 -2.29195476
vt 0 0.0292338226 0
vt 0.0292335693 0.0292338077 0
vt 0.0292338077 0.499989867 0
vt 1.19015567e-07 0.499989778 0
vt 0.0292338226 0.529223442 0
vt 0.499989986 0.499989867 0
vt 0.499989897 0.529223442 0
vt 0.529223561 0.499989748 0
vt 0.499989629 0.0292335693 0
vt 0.529223323 0.0292335544 0
vt 0.499989629 0 0
vt 0.0292335544 1.19015624e-07 0
vt 0.999979615 0.49998951 0
vt 0.999979377 0.0292334352 0
vn -1 0 0
vn -1 0 0
vn -1 0 0
vn -1 0 0
vn 0 0 -1
vn 0 0 -1
vn 0 0 -1
vn 0 0 -1
vn 1 0 0
vn 1 0 0
vn 1 0 0
vn 1 0 0
vn 0 0 1
vn 0 0 1
vn 0 0 1
vn 0 0 1
vn 0 -1 0
vn 0 -1 0
vn 0 -1 0
vn 0 -1 0
vn 0 1 0
vn 0 1 0
vn 0 1 0
vn 0 1 0
g 
f 1/1/1 2/2/2 4/3/3 3/4/4
f 3/5/5 4/3/6 8/6/7 7/7/8
f 7/8/9 8/6/10 6/9/11 5/10/12
f 5/11/13 6/9/14 2/2/15 1/12/16
f 3/13/17 7/8/18 5/10/19 1/14/20
f 8/6/21 4/3/22 2/2/23 6/9/24
