# File exported by Houdini 19.0.498 (www.sidefx.com)
# 28 points
# 108 vertices
# 28 primitives
# Bounds: [-7.79408693, 0.0878452286, -1.20798516] to [7.71728945, 24.4064674, 1.20798564]
g 
v 7.49518108 0.0878452286 -1.19604242
v 7.49518108 0.0878452286 1.1960429
v -7.57125282 0.0878452286 -1.19604242
v -7.57125282 0.0878452286 1.1960429
v -5.8957963 22.6719704 1.1960429
v 5.81972456 22.6719704 1.1960429
v -5.8957963 0.0878452286 1.1960429
v 5.81972456 0.0878452286 1.1960429
v -5.8957963 0.0878452286 -1.19604242
v 5.81972456 0.0878452286 -1.19604242
v 5.81972456 22.6719704 -1.19604242
v -5.8957963 22.6719704 -1.19604242
v -7.57125282 22.6710625 1.1960429
v -7.57125282 22.6683826 -1.19604242
v 7.49518108 22.6794243 1.1960429
v 7.49518108 22.6788158 -1.19604242
v 5.83829737 24.2732258 -1.20798516
v 5.83979368 24.2732258 1.20798564
v -5.92178345 24.2732258 -1.20798516
v -5.91977024 24.2732258 1.20798564
v 7.71650553 23.9844933 1.17303085
v 7.35787344 24.36903 1.19187593
v -7.40375853 24.4064674 1.19187593
v -7.79140186 23.9851036 1.17295074
v -7.79408693 23.9832573 -1.17318487
v -7.40375853 24.4064674 -1.1918813
v 7.35787344 24.36903 -1.1918813
v 7.71728945 23.9839554 -1.17310297
vt 0.051748123 0.700894833 0
vt 0.0517242402 0.607423067 0
vt 0 0.608322561 0
vt 1.60650961e-05 0.699998736 0
vt 0.934499741 0.700893641 0
vt 0.934499562 0.607421935 0
vt 0.999968886 0.700893581 0
vt 0.999968767 0.607421875 0
vt 0.541145802 0.170588836 0
vt 0.541206658 0.0761838779 0
vt 0.600644231 0.0768149793 0
vt 0.600641668 0.169961244 0
vt 0 0.00946743041 0
vt 5.58076717e-05 0.0749367476 0
vt 0.882539332 0.0741845816 0
vt 0.882774711 0.00871511642 0
vt 0.479273289 0.265346766 0
vt 0.021484375 0.265346766 0
vt 0.0214843992 0.171875 0
vt 0.47927326 0.171875 0
vt 0.892249823 0.702148438 0
vt 0.892249882 0.795620084 0
vt 0.00976565387 0.795620143 0
vt 0.009765625 0.702148438 0
vt 0.950724304 0.590846956 0
vt 0.882904291 0.531972945 0
vt 0.945476532 0.532859981 0
vt 0.882904112 0.597442091 0
vt 0.00045607725 0.597918689 0
vt 0.000420616037 0.532449484 0
vt 0.945110023 0.0733502656 0
vt 0.0234733745 0.169945836 0
vt 0.0234760474 0.076799579 0
vt 0.0816967711 0.076171875 0
vt 0.0816157088 0.170576781 0
vt 0.948801577 0.0140242362 0
vt 0.933767438 0 0
vt 0.621190846 0.0775519162 0
vt 0.621224582 0.169228002 0
vt 0.0009765625 0.169214606 0
vt 0.00110336917 0.077538453 0
vt 0.934263408 0.606016755 0
vn -0.98609817 -0.166161641 0.000717659073
vn -0.98609817 -0.166161641 0.000717659073
vn -0.98609817 -0.166161641 0.000717659073
vn -0.98609817 -0.166161641 0.000717659073
vn -1 0 1.03096014e-07
vn -1 0 1.03096014e-07
vn -1 0 1.03096014e-07
vn -1 0 1.03096014e-07
vn 0 -1 0
vn 0 -1 0
vn 0 -1 0
vn 0 -1 0
vn 0 -1 0
vn 0 -1 0
vn 0 -1 0
vn 0 -1 0
vn -0.0629515126 0.998016655 1.96096171e-05
vn -0.0629515126 0.998016655 1.96096171e-05
vn -0.0629515126 0.998016655 1.96096171e-05
vn -0.0629515126 0.998016655 1.96096171e-05
vn 0 0 -1
vn 0 0 -1
vn 0 0 -1
vn 0 0 -1
vn 0 -1 0
vn 0 -1 0
vn 0 -1 0
vn 0 -1 0
vn 1 0 0
vn 1 0 0
vn 1 0 0
vn 1 0 0
vn -1 0 0
vn -1 0 0
vn -1 0 0
vn -1 0 0
vn -0.0115397908 -0.00763049396 0.999904394
vn -0.0115397908 -0.00763049396 0.999904394
vn -0.0115397908 -0.00763049396 0.999904394
vn 0 0 1
vn 0 0 1
vn 0 0 1
vn 0 0 1
vn -0.0115528144 -0.0076450794 -0.999904096
vn -0.0115528144 -0.0076450794 -0.999904096
vn -0.0115528144 -0.0076450794 -0.999904096
vn 0 0 -1
vn 0 0 -1
vn 0 0 -1
vn 0 0 -1
vn 0 0 1
vn 0 0 1
vn 0 0 1
vn 0 0 1
vn 1 0 0
vn 1 0 0
vn 1 0 0
vn 1 0 0
vn 0.985874772 -0.167484149 0.000203592659
vn 0.985874772 -0.167484149 0.000203592659
vn 0.985874772 -0.167484149 0.000203592659
vn 0.985874772 -0.167484149 0.000203592659
vn 0 -0.00745816855 -0.999972284
vn 0 -0.00745816855 -0.999972284
vn 0 -0.00745816855 -0.999972284
vn 0 -0.00745816855 -0.999972284
vn 0.0894872695 0.995988011 -3.755742e-05
vn 0.0894872695 0.995988011 -3.755742e-05
vn 0.0894872695 0.995988011 -3.755742e-05
vn 0.0894872695 0.995988011 -3.755742e-05
vn 0 -0.00745816575 0.999972165
vn 0 -0.00745816575 0.999972165
vn 0 -0.00745816575 0.999972165
vn 0 -0.00745816575 0.999972165
vn 0.00983381178 0.00326065859 -0.999946356
vn 0.00983381178 0.00326065859 -0.999946356
vn 0.00983381178 0.00326065859 -0.999946356
vn 0.00983381178 0.00326065859 -0.999946356
vn 0 1 0
vn 0 1 0
vn 0 1 0
vn 0 1 0
vn 0.7311759 0.682188988 4.35494549e-05
vn 0.7311759 0.682188988 4.35494549e-05
vn 0.7311759 0.682188988 4.35494549e-05
vn 0.7311759 0.682188988 4.35494549e-05
vn -0.735514343 0.677509129 0.000153168789
vn -0.735514343 0.677509129 0.000153168789
vn -0.735514343 0.677509129 0.000153168789
vn -0.735514343 0.677509129 0.000153168789
vn 0.0110904193 -0.00759664038 0.999909639
vn 0.0110904193 -0.00759664038 0.999909639
vn 0.0110904193 -0.00759664038 0.999909639
vn -0.00985890627 0.00335261784 0.999945939
vn -0.00985890627 0.00335261784 0.999945939
vn -0.00985890627 0.00335261784 0.999945939
vn -0.00985890627 0.00335261784 0.999945939
vn -0.00973855332 0.00333240838 -0.999947011
vn -0.00973855332 0.00333240838 -0.999947011
vn -0.00973855332 0.00333240838 -0.999947011
vn -0.00973855332 0.00333240838 -0.999947011
vn 0.0110749621 -0.00758614065 -0.999909937
vn 0.0110749621 -0.00758614065 -0.999909937
vn 0.0110749621 -0.00758614065 -0.999909937
vn 0.00986997318 0.00326824305 0.999945939
vn 0.00986997318 0.00326824305 0.999945939
vn 0.00986997318 0.00326824305 0.999945939
vn 0.00986997318 0.00326824305 0.999945939
g 
usemtl Material.001
f 14/1/1 13/2/2 24/3/3 25/4/4
f 3/5/5 4/6/6 13/2/7 14/1/8
f 10/7/9 1/5/10 2/6/11 8/8/12
f 4/6/13 3/5/14 9/7/15 7/8/16
f 17/9/17 18/10/18 22/11/19 27/12/20
f 1/13/21 10/14/22 11/15/23 16/16/24
f 6/17/25 5/18/26 12/19/27 11/20/28
f 12/21/29 5/22/30 7/23/31 9/24/32
f 6/21/33 11/22/34 10/23/35 8/24/36
f 23/25/37 5/26/38 20/27/39
f 5/26/40 13/28/41 4/29/42 7/30/43
f 19/27/44 12/26/45 26/25/46
f 14/28/47 12/26/48 9/30/49 3/29/50
f 15/16/51 6/15/52 8/14/53 2/13/54
f 16/1/55 15/2/56 2/6/57 1/5/58
f 21/3/59 15/2/60 16/1/61 28/4/62
f 17/31/63 11/15/64 12/26/65 19/27/66
f 26/32/67 23/33/68 20/34/69 19/35/70
f 20/27/71 5/26/72 6/15/73 18/31/74
f 16/16/75 11/15/76 27/36/77 28/37/78
f 19/35/79 20/34/80 18/10/81 17/9/82
f 21/38/83 28/39/84 27/12/85 22/11/86
f 23/33/87 26/32/88 25/40/89 24/41/90
f 18/31/91 6/15/92 22/36/93
f 5/26/94 23/25/95 24/42/96 13/28/97
f 26/25/98 12/26/99 14/28/100 25/42/101
f 27/36/102 11/15/103 17/31/104
f 22/36/105 6/15/106 15/16/107 21/37/108
